<svg xmlns="http://www.w3.org/2000/svg" viewBox="0 0 16 16" width="16" height="16">
    <rect width="16" height="16" rx="2" fill="#8A5FFF" />
    <path transform="translate(0)" d="m0 0h1544v1920h-1544z" fill="#3E75E2"/>
    <path transform="translate(0)" d="m0 0h1544v764l-1119 1-12 11-8 7-16 15-8 7-7 7-8 7-12 11-15 14-8 7-15 14-8 7-9 9-8 7-15 14-12 11-8 7-8 8-8 7-10 9-14 13-8 7-9 9-8 7-15 14-20 18-8 8-8 7-10 9-15 14-8 7-8 8-8 7-13 12-14 13-8 7-8 8-8 7-10 9-17 16-10 9-3 1z" fill="#FEFEFE"/>
    <path transform="translate(0)" d="m0 0h1544l-1 4-15 13-13 12-16 15-15 14-20 18-15 14-12 11-13 12-24 22-16 15-8 7-12 11-17 16-10 9-13 12-10 9-16 15-13 12-20 18-7 7-8 7-15 14-10 9-26 24-15 14-10 9-8 7-8 8-8 7-15 14-10 9-4 3-14 1h-1070l-37-1z" fill="#3E75E2"/>
    <path transform="translate(1542,768)" d="m0 0h2v760l-26 1h-1093l-1-20v-353l6-1h685l7-1 12-11 26-24 14-13 8-7 13-12 15-14 13-12 10-9 13-12 15-14 13-12 8-7 13-12 16-15 13-12 8-7 16-15 12-11 13-12 8-7 15-14 26-24 12-11 39-36 8-7 30-28 10-9 13-12z" fill="#FEFEFE"/>
    <path transform="translate(0)" d="m0 0h422l-2 4-13 13-8 7-15 14-13 12h-2v2l-8 7-14 13-8 7-7 7-8 7-15 14-24 22-13 12-3 1v2l-8 7-14 13-8 7-7 7-8 7-3 1v2l-8 7-17 16-10 9-15 14-8 7-7 7-8 7-10 9-17 16-8 7-7 7-8 7-26 24-3 1v2l-8 7-14 13-8 7-7 7-8 7-15 14-7 6h-2z" fill="#FEFEFE"/>
    <path transform="translate(1543,1532)" d="m0 0h1v388h-421l2-4h2l2-4 8-7 17-16 12-11 20-18 17-16 13-12 8-7 16-15 12-11 15-14 8-7 16-15 10-9 16-15 8-7 7-7 8-7 13-12 14-13 8-7 16-15 10-9 15-14 8-7 16-15 12-11 15-14 10-9 13-12 12-11 14-13 8-7 16-15z" fill="#FEFEFE"/>
    <path transform="translate(1532)" d="m0 0h12l-1 4-15 13-13 12-16 15-15 14-20 18-15 14-12 11-13 12-24 22-16 15-8 7-12 11-17 16-10 9-13 12-10 9-11 10h-2l1-3 3-3h2l2-4h2l2-4h2l2-4h2l2-4 2-2-2-1 1-2h3l1-4h3l1-3 3-1 2-3 1 1 5-6 5-1v-3l6-2 1-3 2-2 3-5 4-4h2l2-4 7-6 1-2h3l1-4 8-7 3-1 1-3 6-2 2-4h2v-2l7-6 5-6 7-6 5-6h2v-2h2v-2l7-6 5-5 11-9 5-2 2-4h2v-2l4-4h2v-2h2v-2l7-6 1-2h2l2-5 3-3h2v-2h2v-2l6-5h2v-2h2v-2l4-2v-2l9-5 6-7 5-6 4-2 3-1 1-3 2-1z" fill="#2D62CA"/>
    <path transform="translate(1540,1529)" d="m0 0h4l-1 4-10 9-24 22-8 7-7 7-8 7-15 14-10 9-13 12-15 14-24 22-8 7-7 7-8 7-15 14-12 11-8 7-17 16-8 7-7 7-4 3h-2v-3h2l2-4 7-7h2l2-4 3-4h3v-3l5-5h2l1-3h2l2-4 3-1 1-3 5-3 3 1 2-4 2-6 9-6 5-3h2v-3l4-2 4-6 4-4h2l2-4 5-5h2l1-3 6-5 6-7 6-5 5-5 9-7h2l2-4h2l1-3 6-5 1-2h2v-2h2l2-4h2v-2h2v-2h2v-2l10-10 3-1v-2l10-7 5-2v-3l3-1 5-6 7-6 5-6 4-3h2v-2l9-3 9-11 1-3-7-1v-1h11 3z" fill="#2E62CB"/>
    <path transform="translate(1519,786)" d="m0 0h2l-2 4-16 15-10 9-17 16-10 9-8 7-17 16-12 11-13 12-12 11-13 12-15 14-10 9-8 7-17 16-12 11-5 4h-2l2-5 3-1 1-3h2l2-4h2l2-4h2l2-4 5-4 2-2 3-5 4-4h3l1-3 5 1 1-4h2l2-4 2-2v-3l3-1 1-3h2l5-5 11-9 4-6 8-7 8-8h2v-2h2v-2h2v-2h3l1-4 4-4h3l2-4 6-5 3-3 8-7 7-6 5-6 7-6 1-2h2l3-6h2v-2l5-3 1-2 5-2 4-5 6-2v-3l4-1v-2l7-6 3-3 4 1z" fill="#2D62CB"/>
    <path transform="translate(422,1156)" d="m0 0h2v364h-2l-1-10-1-20-1-38v-60l-1-147 1-5-2-1h2v-7l-2-1 1-2 1-22 1-43h2l-1-6z" fill="#2B5FC7"/>
    <path transform="translate(1543,764)" d="m0 0 1 4-11 9-5 5h-3v-2h2l2-4 4-7-7-2h-14l-33 1-12-1h-24l-69-1v-1h165z" fill="#2B5FC7"/>
    <path transform="translate(1368,926)" d="m0 0 2 1-15 14-26 24-5 4h-2l2-5 3-1 1-3h2l2-4h2l2-4h2l2-4 5-4 2-2 3-5 4-4h3l1-3 5 1v-2z" fill="#3065CE"/>
    <path transform="translate(1311,977)" d="m0 0h2l-2 4-9 9-8 7-7 7-7 6-5 2v-3l5-5h2l2-4 10-8h3v-2h2l2-4h2v-3l-2 1 1-3 5-2z" fill="#3065CE"/>
    <path transform="translate(1302,1750)" d="m0 0h2l-2 4-8 8-8 7-15 14-6 5-3-1 16-16h2v-2l8-7 3-2h2v-2h2l2-4h2v-2z" fill="#3267D1"/>
    <path transform="translate(1543,764)" d="m0 0 1 4-11 9-5 5h-3v-2h2l2-4 4-7-7-2v-2h13z" fill="#2E62CB"/>
    <path transform="translate(1327,199)" d="m0 0 2 1-17 16-9 8h-2l1-3 3-3h2l2-4h2l2-4h2l2-4h2l2-4 4-1z" fill="#3368D2"/>
    <path transform="translate(1241,1806)" d="m0 0 2 1-7 8-13 12-4 1 2-4 4-4h2l2-4 5-4 5-2v-2h2z" fill="#3267D1"/>
    <path transform="translate(1311,977)" d="m0 0h2l-2 4-9 9-7 5-1-3h3v-2h2l2-4h2v-3l-2 1 1-3 5-2z" fill="#3166CF"/>
    <path transform="translate(1178,1864)" d="m0 0 2 1-11 12-4 3h-2l2-5 8-7z" fill="#3065CE"/>
    <path transform="translate(1296,225)" d="m0 0 3 1-11 12-5 2 2-4 3-4h2l1-3 4-2z" fill="#2D61CA"/>
    <path transform="translate(1243,275)" d="m0 0 2 1-7 8-4 4h-3l2-4 8-8z" fill="#3166CF"/>
    <path transform="translate(1135,1904)" d="m0 0 1 3-8 7-3 3h-2l1-4 7-6 4-1z" fill="#3065CF"/>
    <path transform="translate(1199,1845)" d="m0 0h2l-2 4-12 11-3-1 3-3h2v-2h2v-2z" fill="#3267D1"/>
    <path transform="translate(1241,1806)" d="m0 0 2 1-7 8-6 4h-2l1-3 5-4 5-2v-2h2z" fill="#3065CE"/>
    <path transform="translate(1253,1795)" d="m0 0h2l-2 4-5 5h-3v-2h2l1-3z" fill="#3065CE"/>
    <path transform="translate(1183,1095)" d="m0 0h2l-2 4-3 3-5 2 2-4z" fill="#2F63CC"/>
    <path transform="translate(1235,1047)" d="m0 0 2 1-6 7-4 1 2-4z" fill="#2F63CC"/>
    <path transform="translate(1191,323)" d="m0 0h2l-2 4-3 3-5 2 2-4z" fill="#2F63CC"/>
    <path transform="translate(1278,1771)" d="m0 0m-1 1m-1 1m-1 1m-1 1m-1 1m-1 1m-1 1m-1 1m-1 1m-1 1v3l-3 4-3-1z" fill="#2D61CA"/>
    <path transform="translate(1519,786)" d="m0 0h2l-2 4-5 5-2-1 2-4z" fill="#356AD5"/>
</svg>
